<mxfile host="Electron" agent="Mozilla/5.0 (Windows NT 10.0; Win64; x64) AppleWebKit/537.36 (KHTML, like Gecko) draw.io/26.0.16 Chrome/132.0.6834.196 Electron/34.2.0 Safari/537.36" version="26.0.16">
  <diagram name="Страница — 1" id="GWKHrM5FJo9AHhAd-D71">
    <mxGraphModel dx="1979" dy="688" grid="1" gridSize="10" guides="1" tooltips="1" connect="1" arrows="1" fold="1" page="1" pageScale="1" pageWidth="827" pageHeight="1169" math="0" shadow="0">
      <root>
        <mxCell id="0" />
        <mxCell id="1" parent="0" />
        <mxCell id="zJtZHLJk30r2v2LIpmJg-1" value="Добавить пиццу" style="rounded=0;whiteSpace=wrap;html=1;fillColor=#cce5ff;strokeColor=#36393d;" vertex="1" parent="1">
          <mxGeometry x="-80" y="500" width="120" height="60" as="geometry" />
        </mxCell>
        <mxCell id="zJtZHLJk30r2v2LIpmJg-5" value="Добавить фото" style="rounded=0;whiteSpace=wrap;html=1;fillColor=#f5f5f5;strokeColor=#666666;fontColor=#333333;" vertex="1" parent="1">
          <mxGeometry x="-80" y="584.5" width="120" height="60" as="geometry" />
        </mxCell>
        <mxCell id="zJtZHLJk30r2v2LIpmJg-6" value="Добавить список ингредиентов" style="rounded=0;whiteSpace=wrap;html=1;fillColor=#f5f5f5;strokeColor=#666666;fontColor=#333333;" vertex="1" parent="1">
          <mxGeometry x="-80" y="765" width="120" height="60" as="geometry" />
        </mxCell>
        <mxCell id="zJtZHLJk30r2v2LIpmJg-7" value="Добавить ценник" style="rounded=0;whiteSpace=wrap;html=1;fillColor=#f5f5f5;strokeColor=#666666;fontColor=#333333;" vertex="1" parent="1">
          <mxGeometry x="-80" y="670" width="120" height="60" as="geometry" />
        </mxCell>
        <mxCell id="zJtZHLJk30r2v2LIpmJg-14" value="Изменение ассортимента" style="rounded=0;whiteSpace=wrap;html=1;fillColor=#cdeb8b;strokeColor=#36393d;" vertex="1" parent="1">
          <mxGeometry x="-220" y="420" width="120" height="60" as="geometry" />
        </mxCell>
        <mxCell id="zJtZHLJk30r2v2LIpmJg-20" value="Обязательно сделать" style="text;html=1;align=center;verticalAlign=middle;resizable=0;points=[];autosize=1;strokeColor=none;fillColor=none;fontSize=14;" vertex="1" parent="1">
          <mxGeometry x="-400" y="585" width="160" height="30" as="geometry" />
        </mxCell>
        <mxCell id="zJtZHLJk30r2v2LIpmJg-21" value="" style="endArrow=none;html=1;rounded=0;" edge="1" parent="1">
          <mxGeometry width="50" height="50" relative="1" as="geometry">
            <mxPoint x="-220" y="570" as="sourcePoint" />
            <mxPoint x="250" y="570" as="targetPoint" />
          </mxGeometry>
        </mxCell>
        <mxCell id="zJtZHLJk30r2v2LIpmJg-26" value="" style="endArrow=none;html=1;rounded=0;" edge="1" parent="1">
          <mxGeometry width="50" height="50" relative="1" as="geometry">
            <mxPoint x="50" y="477.5" as="sourcePoint" />
            <mxPoint x="50" y="880" as="targetPoint" />
          </mxGeometry>
        </mxCell>
        <mxCell id="zJtZHLJk30r2v2LIpmJg-30" value="ver. 1" style="text;html=1;align=center;verticalAlign=middle;resizable=0;points=[];autosize=1;strokeColor=none;fillColor=none;" vertex="1" parent="1">
          <mxGeometry x="795" y="798" width="50" height="30" as="geometry" />
        </mxCell>
        <mxCell id="zJtZHLJk30r2v2LIpmJg-32" value="Авторизация" style="rounded=0;whiteSpace=wrap;html=1;fillColor=#cce5ff;strokeColor=#36393d;" vertex="1" parent="1">
          <mxGeometry x="-220" y="500" width="120" height="60" as="geometry" />
        </mxCell>
        <mxCell id="zJtZHLJk30r2v2LIpmJg-33" value="Ввести email" style="rounded=0;whiteSpace=wrap;html=1;fillColor=#f5f5f5;strokeColor=#666666;fontColor=#333333;" vertex="1" parent="1">
          <mxGeometry x="-220" y="584.5" width="120" height="60" as="geometry" />
        </mxCell>
        <mxCell id="zJtZHLJk30r2v2LIpmJg-34" value="Ввести пароль" style="rounded=0;whiteSpace=wrap;html=1;fillColor=#f5f5f5;strokeColor=#666666;fontColor=#333333;" vertex="1" parent="1">
          <mxGeometry x="-220" y="670" width="120" height="60" as="geometry" />
        </mxCell>
        <mxCell id="zJtZHLJk30r2v2LIpmJg-37" value="удалить пиццу" style="rounded=0;whiteSpace=wrap;html=1;fillColor=#cce5ff;strokeColor=#36393d;" vertex="1" parent="1">
          <mxGeometry x="70" y="500" width="120" height="60" as="geometry" />
        </mxCell>
        <mxCell id="zJtZHLJk30r2v2LIpmJg-38" value="Выбрать пиццу" style="rounded=0;whiteSpace=wrap;html=1;fillColor=#f5f5f5;strokeColor=#666666;fontColor=#333333;" vertex="1" parent="1">
          <mxGeometry x="70" y="584.5" width="120" height="60" as="geometry" />
        </mxCell>
        <mxCell id="zJtZHLJk30r2v2LIpmJg-40" value="Нажать &quot;удалить&quot;" style="rounded=0;whiteSpace=wrap;html=1;fillColor=#f5f5f5;strokeColor=#666666;fontColor=#333333;" vertex="1" parent="1">
          <mxGeometry x="70" y="670" width="120" height="60" as="geometry" />
        </mxCell>
        <mxCell id="zJtZHLJk30r2v2LIpmJg-45" value="" style="endArrow=none;html=1;rounded=0;" edge="1" parent="1">
          <mxGeometry width="50" height="50" relative="1" as="geometry">
            <mxPoint x="-90" y="480" as="sourcePoint" />
            <mxPoint x="-90" y="882.5" as="targetPoint" />
          </mxGeometry>
        </mxCell>
        <mxCell id="zJtZHLJk30r2v2LIpmJg-46" value="" style="endArrow=none;html=1;rounded=0;strokeWidth=3;strokeColor=#FF0000;" edge="1" parent="1">
          <mxGeometry width="50" height="50" relative="1" as="geometry">
            <mxPoint x="-250" y="750" as="sourcePoint" />
            <mxPoint x="220" y="750" as="targetPoint" />
            <Array as="points">
              <mxPoint x="-90" y="750" />
              <mxPoint x="-90" y="840" />
              <mxPoint x="60" y="840" />
              <mxPoint x="60" y="750" />
            </Array>
          </mxGeometry>
        </mxCell>
        <mxCell id="zJtZHLJk30r2v2LIpmJg-47" value="ver. 1" style="text;html=1;align=center;verticalAlign=middle;resizable=0;points=[];autosize=1;strokeColor=none;fillColor=none;" vertex="1" parent="1">
          <mxGeometry x="205" y="718" width="50" height="30" as="geometry" />
        </mxCell>
      </root>
    </mxGraphModel>
  </diagram>
</mxfile>
